<svg xmlns="http://www.w3.org/2000/svg" aria-hidden="true" overflow="hidden" style="position:absolute;width:0;height:0"><defs><symbol id="icon-checkbox" viewBox="0 0 34 32"><path d="M30.34 3.556v24.887H3.793V3.556H30.34zm0-3.556H3.793C1.707 0 0 1.6 0 3.556v24.887c0 1.956 1.707 3.556 3.793 3.556H30.34c2.086 0 3.793-1.6 3.793-3.556V3.556C34.133 1.6 32.426 0 30.34 0z"/></symbol><symbol id="icon-E-mail" viewBox="0 0 111 32"><path d="M16.615 16.596H4.48v9.922h14.097v3.02H.787v-28h17.6v3.038H4.479v9.002h12.135v3.018zM31.2 19.097h-9.383v-2.905H31.2v2.905zm8.01-10.366.096 2.306c1.526-1.794 3.584-2.69 6.174-2.69 2.91 0 4.891 1.115 5.942 3.345a7.967 7.967 0 0 1 2.65-2.402l.04-.021c1.118-.615 2.43-.923 3.943-.923 4.564 0 6.885 2.415 6.961 7.249v13.942h-3.557v-13.73c0-1.487-.34-2.597-1.019-3.328-.679-.743-1.822-1.115-3.422-1.115-1.322 0-2.42.399-3.291 1.194-.871.78-1.378 1.839-1.519 3.173v13.807h-3.577V15.901c0-3.023-1.482-4.537-4.443-4.537-2.334 0-3.929.994-4.788 2.981v15.193h-3.557V8.731h3.365zm45.218 20.807c-.204-.411-.369-1.14-.5-2.191-1.654 1.716-3.628 2.575-5.922 2.575-2.05 0-3.737-.576-5.058-1.73-1.305-1.167-1.962-2.641-1.962-4.423 0-2.166.822-3.845 2.462-5.039 1.654-1.206 3.975-1.807 6.964-1.807h3.461v-1.634c0-1.243-.372-2.23-1.115-2.961-.743-.743-1.841-1.115-3.289-1.115-1.27 0-2.334.32-3.193.96-.862.64-1.29 1.418-1.29 2.329h-3.577c0-1.039.367-2.041 1.098-3.003.743-.972 1.743-1.74 2.998-2.306a9.995 9.995 0 0 1 4.181-.844h-.006c2.398 0 4.276.601 5.634 1.807 1.359 1.191 2.063 2.841 2.117 4.943v9.575c0 1.913.241 3.431.729 4.559v.308h-3.732zm-5.902-2.712h.002a6.222 6.222 0 0 0 3.2-.88l-.029.016c.999-.578 1.723-1.329 2.174-2.25v-4.271h-2.789c-4.357 0-6.538 1.278-6.538 3.828 0 1.115.369 1.986 1.115 2.617.743.628 1.698.94 2.865.94zm19.527 2.712h-3.554V8.731h3.557v20.807zM94.208 3.212c0-.578.172-1.066.517-1.462.359-.399.886-.596 1.578-.596s1.218.197 1.575.596c.362.396.542.886.542 1.462s-.18 1.058-.542 1.442c-.357.384-.884.576-1.575.576s-1.218-.192-1.575-.576a2.065 2.065 0 0 1-.519-1.446v.003zm14.604 26.326h-3.559V0h3.559v29.538z"/></symbol><symbol id="icon-envelope2" viewBox="0 0 43 32"><path d="M37.333 0h-32c-2.2 0-3.981 1.8-3.981 4l-.019 24c0 2.2 1.8 4 4 4h32c2.2 0 4-1.8 4-4V4c0-2.2-1.8-4-4-4zm-.8 8.501-14.139 8.837a2.02 2.02 0 0 1-2.129-.005l.009.005-14.141-8.84A1.7 1.7 0 1 1 7.94 5.621l-.006-.004 13.4 8.381 13.4-8.381a1.7 1.7 0 1 1 1.808 2.876l-.008.004z"/></symbol><symbol id="icon-icon-send" viewBox="0 0 32 32"><path d="M32 0 0 18l10.227 3.787L26 7 14.003 23.187l.009.003-.012-.003V32l5.735-6.691L27.002 28l4.999-28z"/></symbol><symbol id="icon-phone-black" viewBox="0 0 32 32"><path d="m24.882 19.774-3.268-.373a2.552 2.552 0 0 0-2.11.732l-2.368 2.368c-3.669-1.894-6.585-4.81-8.427-8.372l-.051-.108 2.382-2.377a2.552 2.552 0 0 0 .731-2.122l.001.012-.373-3.243a2.578 2.578 0 0 0-2.557-2.276H6.613c-1.454 0-2.663 1.209-2.574 2.661.683 10.987 9.47 19.762 20.444 20.444 1.452.089 2.663-1.12 2.663-2.574v-2.238a2.549 2.549 0 0 0-2.253-2.532l-.012-.001z"/></symbol><symbol id="icon-tick" viewBox="0 0 42 32"><path stroke-width=".64" d="m6.262 15.206-.221-.211-.221.208-3.085 2.925.243.234 11.408 10.88.221-.211L38.863 5.892l-.243-.23-3.043-2.902-.221.211-20.97 19.987-8.125-7.75z"/></symbol></defs></svg>